<?xml version="1.0" encoding="UTF-8" standalone="no"?>
<svg
   xmlns:dc="http://purl.org/dc/elements/1.1/"
   xmlns:cc="http://creativecommons.org/ns#"
   xmlns:rdf="http://www.w3.org/1999/02/22-rdf-syntax-ns#"
   xmlns:svg="http://www.w3.org/2000/svg"
   xmlns="http://www.w3.org/2000/svg"
   xmlns:sodipodi="http://sodipodi.sourceforge.net/DTD/sodipodi-0.dtd"
   xmlns:inkscape="http://www.inkscape.org/namespaces/inkscape"
   enable-background="new 0 0 512 512"
   height="512px"
   version="1.1"
   viewBox="0 0 512 512"
   width="512px"
   xml:space="preserve"
   id="svg201"
   sodipodi:docname="404.svg"
   inkscape:version="0.92.1 r15371"><metadata
     id="metadata207"><rdf:RDF><cc:Work
         rdf:about=""><dc:format>image/svg+xml</dc:format><dc:type
           rdf:resource="http://purl.org/dc/dcmitype/StillImage" /></cc:Work></rdf:RDF></metadata><defs
     id="defs205" /><sodipodi:namedview
     pagecolor="#ffffff"
     bordercolor="#666666"
     borderopacity="1"
     objecttolerance="10"
     gridtolerance="10"
     guidetolerance="10"
     inkscape:pageopacity="0"
     inkscape:pageshadow="2"
     inkscape:window-width="1920"
     inkscape:window-height="1016"
     id="namedview203"
     showgrid="false"
     inkscape:zoom="1.84375"
     inkscape:cx="226.0787"
     inkscape:cy="260.28514"
     inkscape:window-x="0"
     inkscape:window-y="27"
     inkscape:window-maximized="1"
     inkscape:current-layer="svg201" /><g
     id="Background" /><g
     id="Foot"><g
       id="g13"><path
         d="M266.771,367.266c-15.172,0.403-26.715,29.08-25.784,64.051l54.94-1.459    C294.996,394.886,281.941,366.862,266.771,367.266z"
         fill="#A8AAAD"
         id="path9" /><polygon
         fill="#231F20"
         points="288.607,427.647 252.968,428.409 253.013,430.887 288.652,430.125   "
         id="polygon11" /></g><g
       id="g17"><path
         d="M306.451,278.491c-4.749-2.96-8.02-7.703-9.21-13.354c-1.384-6.572,0.179-13.799,4.287-19.826l0.786,0.536    c-3.964,5.814-5.473,12.773-4.142,19.094c1.136,5.396,4.255,9.922,8.781,12.742L306.451,278.491z"
         fill="#3F3C3C"
         id="path15" /></g><g
       id="g23"><path
         d="M198.253,367.266c-15.172,0.403-26.716,29.08-25.784,64.051l54.941-1.459    C226.478,394.886,213.424,366.862,198.253,367.266z"
         fill="#CCCDCE"
         id="path19" /><polygon
         fill="#231F20"
         points="217.235,427.647 181.596,428.409 181.641,430.887 217.28,430.125   "
         id="polygon21" /></g></g><g
     id="Hand"><path
       d="M379.193,234.262l-9.821,31.414l-48.125-18.543c-8.018-2.382-15.927,2.067-17.667,9.938   c-1.739,7.87,3.35,16.183,11.366,18.564c0,0,55.715,17.696,55.771,17.441c0.056-0.255,9.054,1.194,12.935-6.201   c3.881-7.396,10.391-35.452,10.391-35.452l3.121-11.964L379.193,234.262z"
       fill="#A8AAAD"
       id="path26" /><path
       d="M405.114,211.033c-0.679,2.173-1.394,4.333-2.122,6.488c1.268,2.417,1.759,5.098,1.186,7.687   c-1.395,6.297-8.466,9.635-15.792,7.456c-7.328-2.18-12.137-9.052-10.741-15.35c0.576-2.603,2.13-4.688,4.264-6.096   c-0.128-2.136-0.302-4.274-0.443-6.41c-4.972,1.858-8.754,5.766-9.93,11.069c-2.092,9.446,4.852,19.673,15.509,22.844   s20.992-1.917,23.085-11.363C411.401,221.616,409.326,215.591,405.114,211.033z"
       fill="#595A5C"
       id="path28" /><g
       id="g32"><polygon
         fill="#3DB54A"
         points="448.15,266.877 447.36,264.087 443.538,265.321 442.053,259.62 442.973,259.381 444.205,264.106     448.007,262.878 449.066,266.619   "
         id="polygon30" /></g><g
       id="g36"><polygon
         fill="#2E368F"
         points="447.648,261.594 444.199,259.099 444.757,258.327 447.499,260.312 450.852,256.436     456.021,260.369 455.445,261.125 450.987,257.734   "
         id="polygon34" /></g><g
       id="g42"><path
         d="M442.998,242.947l-36.563-40.279l21.78-21.021l-12.219-15.669l-8.566,7.401    c0,0-20.444,16.564-24.883,23.046s0.721,14.747,0.534,14.894c-0.187,0.148,39.008,48.15,39.008,48.15    c5.503,6.967,14.646,8.916,20.419,4.354C448.283,259.261,448.501,249.914,442.998,242.947z"
         fill="#A8AAAD"
         id="path38" /><path
         d="M449.885,166.298c-1.755,1.137-3.535,2.242-5.324,3.335c-0.293,2.517-1.368,4.742-3.269,6.242    c-4.623,3.649-12.271,1.664-17.085-4.434c-4.814-6.098-4.97-13.999-0.348-17.647c1.91-1.509,4.338-2.042,6.867-1.729    c1.072-1.609,2.11-3.25,3.174-4.868c-5.108-1.746-10.372-1.289-14.264,1.785c-6.934,5.474-6.878,17.1,0.124,25.969    c7.002,8.869,18.299,11.622,25.231,6.149C449.207,177.773,450.828,172.171,449.885,166.298z"
         fill="#595A5C"
         id="path40" /></g></g><g
     id="Body"><path
       d="M295.208,226.397H171.257c-11.864,0-21.57,9.707-21.57,21.57v106.797c0,11.863,9.706,21.57,21.57,21.57   h123.951c11.863,0,21.571-9.707,21.571-21.57V247.967C316.779,236.104,307.071,226.397,295.208,226.397z"
       fill="#DE5A53"
       id="path45" /><g
       id="g59"><ellipse
         cx="299.925"
         cy="323.845"
         fill="#EB272A"
         rx="12.276"
         ry="11.419"
         id="ellipse47" /><g
         id="g55"><path
           d="M298.196,324.114c0,2.647-1.684,4.052-3.737,4.052c-2.125,0-3.617-1.575-3.617-3.903     c0-2.442,1.589-4.041,3.738-4.041C296.776,320.222,298.196,321.832,298.196,324.114z M291.953,324.239     c0,1.644,0.932,3.116,2.567,3.116c1.646,0,2.578-1.449,2.578-3.196c0-1.528-0.837-3.127-2.567-3.127     C292.813,321.032,291.953,322.551,291.953,324.239z"
           fill="#272626"
           id="path49" /><path
           d="M299.55,320.348h4.332v0.833h-3.293v2.557h3.044v0.822h-3.044v3.48h-1.039V320.348z"
           fill="#272626"
           id="path51" /><path
           d="M305.367,320.348h4.333v0.833h-3.294v2.557h3.045v0.822h-3.045v3.48h-1.039V320.348z"
           fill="#272626"
           id="path53" /></g><path
         d="M312.209,323.846c0-5.396-4.117-9.903-9.648-11.1c-4.227,1.245-7.379,6.076-7.379,11.858    c0,4.578,1.976,8.561,4.896,10.642C306.813,335.039,312.209,330.021,312.209,323.846z"
         fill="#191818"
         opacity="0.1"
         id="path57" /></g><g
       id="g63"><rect
         fill="#EB272A"
         height="69.301"
         width="98.54"
         x="185.215"
         y="292.692"
         id="rect61" /></g><g
       id="g75"><ellipse
         cx="168.531"
         cy="323.845"
         fill="#3EB172"
         rx="12.276"
         ry="11.419"
         id="ellipse65" /><g
         id="g71"><path
           d="M168.603,323.726c0,2.647-1.683,4.052-3.736,4.052c-2.125,0-3.618-1.575-3.618-3.903     c0-2.442,1.589-4.04,3.737-4.04C167.183,319.834,168.603,321.443,168.603,323.726z M162.359,323.852     c0,1.644,0.931,3.115,2.567,3.115c1.647,0,2.579-1.449,2.579-3.195c0-1.529-0.836-3.128-2.567-3.128     C163.22,320.644,162.359,322.162,162.359,323.852z"
           fill="#232323"
           id="path67" /><path
           d="M169.956,327.652v-7.693h1.134l2.579,3.893c0.597,0.902,1.063,1.712,1.444,2.499l0.023-0.011     c-0.095-1.028-0.119-1.964-0.119-3.162v-3.219h0.979v7.693h-1.051l-2.555-3.903c-0.561-0.856-1.098-1.735-1.505-2.568     l-0.036,0.012c0.061,0.97,0.083,1.895,0.083,3.173v3.287H169.956z"
           fill="#232323"
           id="path69" /></g><path
         d="M180.809,323.846c0-5.669-4.445-10.359-10.267-11.254    c-3.808,1.662-6.566,6.508-6.566,12.233c0,4.289,1.553,8.076,3.93,10.41c0.208,0.011,0.414,0.029,0.625,0.029    C175.312,335.265,180.809,330.152,180.809,323.846z"
         fill="#303030"
         opacity="0.2"
         id="path73" /></g><path
       d="M267.179,300.371h-0.536c-1.222,0-2.22,0.999-2.22,2.221v48.217   c0,1.221,0.998,2.22,2.22,2.22h0.536c1.221,0,2.22-0.999,2.22-2.22v-48.217C269.398,301.37,268.399,300.371,267.179,300.371z"
       fill="#191818"
       opacity="0.4"
       id="path77" /><path
       d="M266.91,305.765c-1.368,0-2.487,1.07-2.487,2.379v8.564c0,1.309,1.119,2.379,2.487,2.379   s2.488-1.07,2.488-2.379v-8.564C269.398,306.835,268.278,305.765,266.91,305.765z"
       fill="#FBED26"
       id="path79" /><path
       d="M266.91,320.99c-1.368,0-2.487,1.071-2.487,2.379v8.565c0,1.309,1.119,2.379,2.487,2.379   s2.488-1.07,2.488-2.379v-8.565C269.398,322.062,268.278,320.99,266.91,320.99z"
       fill="#069547"
       id="path81" /><path
       d="M266.91,336.217c-1.368,0-2.487,1.07-2.487,2.379v8.564c0,1.309,1.119,2.379,2.487,2.379   s2.488-1.07,2.488-2.379v-8.564C269.398,337.287,268.278,336.217,266.91,336.217z"
       fill="#2376BC"
       id="path83" /><path
       d="M298.457,264.194c-1.383-6.309,0.068-13.28,3.984-19.126l-0.789-0.53c-4.06,6.061-5.563,13.3-4.127,19.859   c1.238,5.643,4.546,10.358,9.319,13.279l0.496-0.812C302.793,274.081,299.638,269.581,298.457,264.194z"
       fill="#333333"
       id="path85" /><g
       id="g89"><path
         d="M161.712,279.612l-0.791-0.529c4.915-7.338,6.926-15.926,5.382-22.973    c-1.03-4.698-3.518-8.371-7.197-10.622l0.497-0.813c3.905,2.391,6.543,6.273,7.629,11.231    C168.831,263.201,166.768,272.064,161.712,279.612z"
         fill="#333333"
         id="path87" /></g><g
       id="g95"><ellipse
         cx="190.976"
         cy="297.957"
         fill="#818385"
         rx="2.963"
         ry="3.406"
         transform="matrix(0.7071 0.7071 -0.7071 0.7071 266.603 -47.7755)"
         id="ellipse91" /><polygon
         fill="#5A5B5D"
         points="193.684,298.503 193.777,297.531 188.27,297.412 188.176,298.385   "
         id="polygon93" /></g><g
       id="g101"><ellipse
         cx="276.623"
         cy="297.954"
         fill="#818385"
         rx="2.963"
         ry="3.405"
         transform="matrix(-0.1681 -0.9858 0.9858 -0.1681 29.4139 620.7296)"
         id="ellipse97" /><polygon
         fill="#5A5B5D"
         points="274.729,295.944 274.092,296.682 278.518,299.963 279.154,299.224   "
         id="polygon99" /></g><g
       id="g107"><ellipse
         cx="190.976"
         cy="356.22"
         fill="#818385"
         rx="2.963"
         ry="3.406"
         transform="matrix(0.7071 0.7071 -0.7071 0.7071 307.7985 -30.7131)"
         id="ellipse103" /><polygon
         fill="#5A5B5D"
         points="193.684,356.766 193.777,355.794 188.27,355.675 188.176,356.647   "
         id="polygon105" /></g><g
       id="g113"><ellipse
         cx="276.623"
         cy="356.216"
         fill="#818385"
         rx="2.963"
         ry="3.405"
         transform="matrix(-0.1681 -0.9858 0.9858 -0.1681 -28.0196 688.7869)"
         id="ellipse109" /><polygon
         fill="#5A5B5D"
         points="274.729,354.207 274.092,354.944 278.518,358.227 279.154,357.486   "
         id="polygon111" /></g><g
       id="g117"><path
         d="M161.307,279.239l-0.786-0.535c4.974-7.298,7.056-15.869,5.569-22.929c-0.991-4.707-3.45-8.4-7.11-10.682    l0.504-0.808c3.885,2.422,6.491,6.327,7.537,11.293C168.56,262.888,166.424,271.732,161.307,279.239z"
         fill="#3F3C3C"
         id="path115" /></g><path
       d="M165.181,260.631c-0.567-9.181-7.9-16.257-15.205-15.806l-0.131,33.156   c0.715,0.103,2.396,0.135,3.136,0.088C160.286,277.618,165.749,269.811,165.181,260.631z"
       fill="#3F3939"
       id="path119" /><g
       id="g123"><polygon
         fill="#3DB54A"
         points="156.283,267.299 155.234,264.595 151.544,266.183 149.533,260.646 150.427,260.32     152.095,264.909 155.765,263.331 157.17,266.955   "
         id="polygon121" /></g><g
       id="g127"><polygon
         fill="#2E368F"
         points="153.535,261.447 149.867,259.285 150.35,258.466 153.266,260.186 156.242,256.013     161.756,259.443 161.253,260.252 156.498,257.293   "
         id="polygon125" /></g><g
       id="g141"><ellipse
         cx="233.999"
         cy="264.268"
         fill="#5FC6CA"
         rx="20.46"
         ry="21.991"
         id="ellipse129" /><path
         d="M233.878,242.753c-1.146,0-2.267,0.107-3.359,0.303    c-2.047,3.111-15.207,24.643-0.474,42.573c1.242,0.254,2.521,0.393,3.833,0.393c11.175,0,20.233-9.687,20.233-21.634    C254.111,252.439,245.054,242.753,233.878,242.753z"
         fill="#1C1C1C"
         opacity="0.2"
         id="path131" /><path
         d="M251.794,253.44c-9.455,7.902-25.505,8.154-35.884,0.565"
         fill="none"
         id="path133" /><path
         d="M252.567,273.642c-9.654,8.068-26.241,8.181-37.084,0.251"
         fill="none"
         id="path135" /><g
         id="g139"><path
           d="M252.866,274.001c1.325-2.946,2.068-6.248,2.068-9.732c0-12.388-9.393-22.467-20.936-22.467     c-11.544,0-20.937,10.08-20.937,22.467c0,3.575,0.787,6.955,2.177,9.959l-0.036,0.049c0.028,0.021,0.059,0.037,0.086,0.058     c3.446,7.347,10.536,12.401,18.709,12.401c8.29,0,15.469-5.198,18.858-12.716c0.006-0.004,0.012-0.008,0.016-0.012     L252.866,274.001z M233.536,270.919c7.427,0,14.813-2.18,20.442-6.494c-0.021,3.21-0.698,6.255-1.896,8.988     c-9.421,7.71-25.456,7.825-36.048,0.275c-1.177-2.593-1.883-5.476-2-8.52C219.641,268.997,226.598,270.919,233.536,270.919z      M214.02,264.018c0.036-3.342,0.782-6.502,2.084-9.313c5.044,3.521,11.336,5.287,17.575,5.287c6.58,0,13.075-1.966,17.952-5.834     c1.354,2.725,2.179,5.797,2.326,9.058C243.261,271.891,225.499,272.261,214.02,264.018z M233.999,242.753     c7.302,0,13.699,4.24,17.186,10.551c-9.215,7.434-24.571,7.671-34.659,0.538C219.94,247.235,226.491,242.753,233.999,242.753z      M233.999,285.783c-7.234,0-13.584-4.16-17.092-10.375c5.124,3.202,11.274,4.813,17.333,4.813c6.137,0,12.163-1.648,16.906-4.918     C247.649,281.575,241.273,285.783,233.999,285.783z"
           fill="#333333"
           id="path137" /></g></g><path
       d="M295.208,226.397h-60.474v149.938h60.474c11.863,0,21.571-9.707,21.571-21.57V247.967   C316.779,236.104,307.071,226.397,295.208,226.397z"
       fill="#191818"
       opacity="0.1"
       id="path143" /></g><g
     id="Head"><g
       id="g148"><path
         d="M228.811,95.341c-0.044-0.979-0.937-24.689,8.344-31.08c2.989-2.058,6.706-2.145,11.043-0.259    l-0.379,0.873c-4.018-1.747-7.424-1.69-10.125,0.17c-8.85,6.094-7.919,30.062-7.909,30.295H228.811z"
         fill="#2B2929"
         id="path146" /></g><path
       d="M313.318,94.979H155.651c-6.281,0-11.419,5.139-11.419,11.419v101.603c0,6.281,5.139,11.42,11.419,11.42   h157.667c6.282,0,11.42-5.139,11.42-11.42V106.398C324.738,100.118,319.601,94.979,313.318,94.979z"
       fill="#DE5A53"
       id="path150" /><g
       id="g156"><ellipse
         cx="155.828"
         cy="104.811"
         fill="#818385"
         rx="6.82"
         ry="5.933"
         id="ellipse152" /><polygon
         fill="#5A5B5D"
         points="152.767,100.205 151.258,101.45 158.889,109.417 160.398,108.172   "
         id="polygon154" /></g><g
       id="g162"><ellipse
         cx="313.564"
         cy="104.542"
         fill="#818385"
         rx="6.82"
         ry="5.933"
         id="ellipse158" /><polygon
         fill="#5A5B5D"
         points="310.503,99.937 308.993,101.182 316.625,109.148 318.135,107.903   "
         id="polygon160" /></g><g
       id="g168"><ellipse
         cx="310.986"
         cy="210.271"
         fill="#818385"
         rx="6.82"
         ry="5.933"
         id="ellipse164" /><polygon
         fill="#5A5B5D"
         points="307.925,205.665 306.416,206.909 314.047,214.876 315.557,213.631   "
         id="polygon166" /></g><ellipse
       cx="246.696"
       cy="64.089"
       fill="#5FC6CA"
       rx="6.713"
       ry="5.248"
       transform="matrix(0.2018 -0.9794 0.9794 0.2018 134.1339 292.7727)"
       id="ellipse170" /><g
       id="g176"><ellipse
         cx="157.534"
         cy="209.166"
         fill="#818385"
         rx="6.82"
         ry="5.933"
         id="ellipse172" /><polygon
         fill="#5A5B5D"
         points="154.473,204.56 152.963,205.804 160.595,213.771 162.104,212.526   "
         id="polygon174" /></g><polygon
       fill="#5FC6CA"
       points="296.511,131.054 287.582,143.189 269.679,143.222 260.705,131.119 269.636,118.983    287.537,118.951  "
       id="polygon178" /><polygon
       fill="#5FC6CA"
       points="210.408,131.211 201.478,143.347 183.576,143.379 174.602,131.276 183.531,119.14 201.434,119.108     "
       id="polygon180" /><path
       d="M238.922,171.022c-14.621,0.247-27.881,6.161-37.337,16.653l0.707,0.638   c9.278-10.295,22.292-16.098,36.646-16.339c14.383-0.236,28.37,5.115,39.429,15.082l0.638-0.707   C267.766,176.22,253.56,170.779,238.922,171.022z"
       fill="#3F3C3C"
       id="path182" /><g
       id="g186"><path
         d="M270.581,133.459l-0.613-0.728c5.412-4.569,12.983-4.534,16.876,0.076l-0.727,0.614    C282.563,129.211,275.596,129.229,270.581,133.459z"
         fill="#2D2D2D"
         id="path184" /></g><g
       id="g190"><path
         d="M183.983,133.459l-0.614-0.727c5.414-4.57,12.984-4.536,16.876,0.076l-0.727,0.614    C195.963,129.211,188.994,129.229,183.983,133.459z"
         fill="#2D2D2D"
         id="path188" /></g><path
       d="M250.401,195.464c-7.457,5.357-16.888,5.036-21.021-0.717l-0.773,0.555   c2.347,3.267,6.253,4.923,10.581,4.923c3.859,0,8.052-1.318,11.768-3.988L250.401,195.464z"
       fill="#3F3C3C"
       id="path192" /><polygon
       fill="#191818"
       opacity="0.1"
       points="191.807,119.125 191.807,143.364 201.478,143.347 210.408,131.211 201.434,119.108     "
       id="polygon194" /><polygon
       fill="#191818"
       opacity="0.1"
       points="278.405,143.206 287.582,143.189 296.511,131.054 287.537,118.951 278.405,118.967     "
       id="polygon196" /><path
       d="M313.636,94.979h-78.108v124.442h78.108c5.979,0,10.87-5.139,10.87-11.42V106.398   C324.506,100.118,319.615,94.979,313.636,94.979z"
       fill="#191818"
       opacity="0.1"
       id="path198" /></g></svg>