<?xml version="1.0" encoding="UTF-8" standalone="no"?>
<!-- Generator: Adobe Illustrator 19.0.0, SVG Export Plug-In . SVG Version: 6.00 Build 0)  -->

<svg
   xmlns:dc="http://purl.org/dc/elements/1.1/"
   xmlns:cc="http://creativecommons.org/ns#"
   xmlns:rdf="http://www.w3.org/1999/02/22-rdf-syntax-ns#"
   xmlns:svg="http://www.w3.org/2000/svg"
   xmlns="http://www.w3.org/2000/svg"
   xmlns:sodipodi="http://sodipodi.sourceforge.net/DTD/sodipodi-0.dtd"
   xmlns:inkscape="http://www.inkscape.org/namespaces/inkscape"
   version="1.1"
   id="Layer_1"
   x="0px"
   y="0px"
   viewBox="0 0 512 512"
   style="enable-background:new 0 0 512 512;"
   xml:space="preserve"
   sodipodi:docname="logo.svg"
   inkscape:version="0.92.1 r15371"><metadata
     id="metadata105"><rdf:RDF><cc:Work
         rdf:about=""><dc:format>image/svg+xml</dc:format><dc:type
           rdf:resource="http://purl.org/dc/dcmitype/StillImage" /></cc:Work></rdf:RDF></metadata><defs
     id="defs103" /><sodipodi:namedview
     pagecolor="#ffffff"
     bordercolor="#666666"
     borderopacity="1"
     objecttolerance="10"
     gridtolerance="10"
     guidetolerance="10"
     inkscape:pageopacity="0"
     inkscape:pageshadow="2"
     inkscape:window-width="1920"
     inkscape:window-height="1016"
     id="namedview101"
     showgrid="false"
     inkscape:zoom="3.6875"
     inkscape:cx="406.4396"
     inkscape:cy="218.95131"
     inkscape:window-x="0"
     inkscape:window-y="27"
     inkscape:window-maximized="1"
     inkscape:current-layer="Layer_1" /><path
     style="fill:#1e2b5e;fill-opacity:1"
     d="M 255.999,511.23297 C 397,511.23297 512,396.23297 512,255.23397 512,114.23297 397,-0.76703225 255.999,-0.76703225 115,-0.76703225 1.7940711e-6,114.23297 1.7940711e-6,255.23397 1.7940711e-6,396.23297 115,511.23297 255.999,511.23297 Z"
     id="path2"
     inkscape:connector-curvature="0" /><path
     style="fill:#929292;fill-opacity:1"
     d="M21.748,248.542l75.663,34.349l71.223-32.332l-75.663-34.347l-71.223,32.332V248.542z"
     id="path4" /><path
     style="fill:#63390a;fill-opacity:1"
     d="M80.119,327.502c10.05,0,20.095,0,30.144,0l2.441,25.406l7.377,5.415l43.892,13.915  c0,0,5.757,3.166,7.448,12.021c0.741,3.883,2.311,81.596,3.955,114.784c-64.366-21.338-117.396-67.53-147.728-127.199l42.952-13.712  l7.078-5.221l2.441-25.406V327.502z"
     id="path6" /><path
     style="fill:#FFFFFF;"
     d="M117.432,366.086c-7.274,8.497-31.567,12.166-44.948-2.353l22.705,67.587L117.432,366.086z"
     id="path8" /><path
     style="fill:#764101;fill-opacity:1"
     d="M57.551,288.915c-9.452-1.676-1.393,26.557,5.51,22.348l3.706,10.881  c3.34,9.805,11.758,18.73,18.168,25.797c2.5,2.756,17.822,2.71,20.298,0.106c7.097-7.463,15.529-15.846,18.695-25.955l3.391-10.828  c6.917,4.205,14.958-24.024,5.51-22.348c0.655-21.976-14.885-43.299-37.637-43.398c-22.752,0.099-38.294,21.422-37.639,43.398  H57.551z"
     id="path10" /><path
     style="fill:#FF5B61;"
     d="M70.601,358.129l-42.952,13.712c30.427,59.863,83.7,106.147,148.341,127.398  c-1.852-21.696-3.735-110.621-4.568-114.984c-1.691-8.855-7.448-12.021-7.448-12.021l-43.892-13.915l-24.893,72.998l-24.588-73.189  V358.129z"
     id="path12" /><path
     style="fill:#1f1f1f;fill-opacity:1"
     d="M122.326,249.845c2.672-0.313,12.318,8.502,13.476,18.706c1.16,10.204-1.063,20.492-1.063,20.492  c-6.789-0.331-4.65,10.047-6.127,11.688l-1.914,0.042l-0.714-6.963c-8.456-5.3,3.336-26.235-5.12-28.072  c-14.477,11.924-35.95,16.336-54.687,13.275c-5.259,0.699,2.392,7.344,0.174,14.993c-1.636,2.855-0.659,7.358-0.659,7.358  l-2.445,0.304c0,0-1.548-12.909-6.264-12.859c-1.144-5.949-1.618-9.498-1.299-14.768c1.612-26.974,37.879-42.333,66.646-24.198  L122.326,249.845z"
     id="path14" /><path
     style="fill:#807D7D;"
     d="M55.718,251.327c17.158-13.068,64.549-13.324,79.859-0.119l0.807,21.321  c-26.716-7.929-54.283-7.203-81.599,0.814L55.718,251.327z"
     id="path16" /><g
     id="g28"><path
       style="fill:#929292;fill-opacity:1"
       d="M358.801,245.546l69.122,31.375l65.06-29.536l-69.122-31.375L358.801,245.546z"
       id="path24" /><path
       style="fill:#6c3b1f;fill-opacity:1"
       d="M378.072,354.674c6.795-11.421,17.504-24.677,6.628-44.833   c-16.009-69.99,57.762-84.181,68.919-55.297c18.148,6.844,17.665,44.52,8.332,64.233c-0.415,8.116-8.855,15.189,6.392,36.124   l1.096-0.243h-0.002c-19.775,5.733-70.462,3.091-91.366,0.013L378.072,354.674z"
       id="path26" /></g><path
     style="fill:#F0B97D;"
     d="M411.982,339.922c-0.679,12.534-5.126,17.268-11.295,20.562c-3.135,2.769-30.68,6.088-34.402,16.148  c-0.792,2.132-3.173,68.72-5.435,112.779c52.74-23.709,95.99-64.754,122.516-115.877c-7.918-8.422-31-10.435-33.719-12.706  c-6.035-3.376-10.369-8.341-11.042-20.911c0,0-9.016,6.994-14.622,5.92c-5.607-1.076-12.001-5.92-12.001-5.92V339.922z"
     id="path30" /><path
     style="fill:#FED198;"
     d="M397.457,319.364c5.561,11.913,7.618,16.565,14.528,21.918c0,0,6.392,4.932,11.999,6.032  c5.605,1.098,14.62-6.032,14.62-6.032c6.908-5.353,8.965-10.006,14.528-21.918c1.365,0.725,2.787,1.711,3.894,0.443  c1.109-1.268,6.379-17.751,5.428-19.971c-0.948-2.222-1.874-0.805-3.285,0.201c0.073-0.478-1.118,5.953-1.098,4.976  c0.13-7.779-5.336-9.011-7.051-29.598c-25.212,25.014-48.762,13.538-56.969,15.211c-2.379,0.485-3.076,6.575-2.637,9.41  c-8.897-6.352,1.914,19.513,2.141,19.771c1.109,1.268,2.531,0.282,3.896-0.443H397.457z"
     id="path32" /><path
     style="fill:#FF5B61;"
     d="M400.682,360.482c-10.411,4.361-26.619,4.555-34.731,15.163  c-1.535,2.009-8.833,73.633-14.267,117.665c56.885-22.939,103.629-65.719,131.679-119.767c-8.561-9.644-25.47-8.766-33.531-13.097  l-23.653,48.352l-25.497-48.319V360.482z"
     id="path34" /><path
     style="fill:#807D7D;"
     d="M387.572,248.752c17.811-11.941,61.175-11.428,77.068,0.637l1.64,19.974  c-27.726-7.243-52.186-6.872-80.538,0.454l1.83-21.063V248.752z"
     id="path36" /><g
     id="g42"><path
       style="fill:#FFFFFF;"
       d="M411.843,381.602c7.362,2.622,19.881,2.635,27.644-0.011l-13.308,27.21L411.843,381.602z"
       id="path38" /></g><g
     id="g52"><path
       style="fill:#939393;fill-opacity:1"
       d="M119.667,125.243l145.34,65.98l136.81-62.106l-145.34-65.98L119.667,125.243z"
       id="path48" /><path
       style="fill:#f9ff52;fill-opacity:1"
       d="M160.188,354.72c14.29-24.017,36.805-51.895,13.937-94.274   C140.463,113.273,295.589,83.433,319.044,144.172c38.166,14.393,37.151,93.615,17.522,135.07   c-0.873,17.059-18.613,31.937,13.441,75.952l2.308-0.505l-0.002,0.002c-41.581,12.047-148.163,6.5-192.123,0.029H160.188z"
       id="path50" /></g><path
     style="fill:#F0B97D;"
     d="M231.494,323.703c-1.429,26.357-10.784,36.307-23.755,43.237c-6.599,5.83-56.267,7.395-70.782,30.837  c-1.594,2.575-12.997,44.145-18.551,74.138C158.146,497.289,205.352,512,255.997,512c51.858,0,100.102-15.434,140.421-41.938  c-5.402-31.28-10.136-69.051-12.14-72.285c-15.328-24.758-67.519-25.045-73.589-30.105c-12.687-7.1-21.799-17.544-23.215-43.969  c0,0-18.962,14.706-30.751,12.442C244.937,333.882,231.494,323.703,231.494,323.703z"
     id="path54" /><path
     style="fill:#FED198;"
     d="M200.944,280.475c11.697,25.047,16.023,34.83,30.55,46.088c0,0,13.443,10.376,25.23,12.684  c11.789,2.308,30.751-12.684,30.751-12.684c14.528-11.258,18.851-21.039,30.548-46.088c2.866,1.526,5.865,3.596,8.191,0.928  c2.328-2.668,13.408-37.321,11.414-41.995c-1.995-4.676-3.938-1.696-6.908,0.421c0.157-1.008-2.346,12.523-2.311,10.466  c0.28-16.355-11.216-18.955-14.821-62.236c-53.015,52.596-102.538,28.462-119.793,31.981c-5.001,1.021-6.467,13.822-5.545,19.788  c-18.712-13.355,4.028,41.03,4.504,41.574C195.084,284.071,198.078,282.001,200.944,280.475z"
     id="path56" /><path
     style="fill:#0E7886;"
     d="M207.735,366.926c-17.819,9.52-51.858-1.587-72.182,31.236c-1.237,2-10.103,41.823-18.847,72.643  c40.088,26.05,87.918,41.193,139.29,41.193c54.828,0,105.625-17.244,147.279-46.595c-8.491-30.486-17.187-64.707-18.995-67.629  c-20.377-32.918-55.352-21.341-73.192-30.918L261.35,468.529l-53.613-101.605L207.735,366.926z"
     id="path58" /><path
     style="fill:#807D7D;"
     d="M180.168,131.986c37.449-25.104,128.639-24.028,162.055,1.347l3.451,41.998  c-58.307-15.229-109.741-14.45-169.353,0.948l3.85-44.291L180.168,131.986z"
     id="path60" /><path
     style="fill:#20D0C2;"
     d="M231.208,411.338c15.471,5.519,41.799,5.552,58.128-0.02l-27.99,57.218l-30.14-57.198H231.208z"
     id="path62" /><g
     id="g70" /><g
     id="g72" /><g
     id="g74" /><g
     id="g76" /><g
     id="g78" /><g
     id="g80" /><g
     id="g82" /><g
     id="g84" /><g
     id="g86" /><g
     id="g88" /><g
     id="g90" /><g
     id="g92" /><g
     id="g94" /><g
     id="g96" /><g
     id="g98" /><path
     inkscape:connector-curvature="0"
     id="path4-3"
     d="m 406.15224,189.3388 -1.42027,-0.90472 c -1.14986,-0.73242 -2.05629,-2.29794 -2.48024,-4.28395 l -0.52386,-2.45336 c -0.0197,-0.0922 -0.0707,-0.15349 -0.12752,-0.15349 -0.0569,0 -0.10787,0.0611 -0.12752,0.15349 l -0.52386,2.45321 c -0.42403,1.98616 -1.33045,3.55168 -2.48023,4.2841 l -1.42035,0.90472 c -0.0534,0.0341 -0.0888,0.12196 -0.0888,0.22028 0,0.0983 0.0355,0.18623 0.0888,0.22027 l 1.42043,0.90498 c 1.14978,0.73242 2.05612,2.29795 2.48015,4.28396 l 0.52386,2.4535 c 0.0197,0.0922 0.0706,0.15349 0.12752,0.15349 0.0569,0 0.10788,-0.0611 0.12752,-0.15349 l 0.52386,-2.4535 c 0.42403,-1.98601 1.33038,-3.55165 2.48016,-4.28396 l 1.42043,-0.90498 c 0.0534,-0.0341 0.0888,-0.12197 0.0888,-0.22027 0,-0.0983 -0.0355,-0.18625 -0.0889,-0.22028 z"
     style="fill:#ffff00;stroke-width:0.10520884" /><path
     inkscape:connector-curvature="0"
     id="path4-3-6"
     d="m 64.614912,153.68637 -2.957828,-1.88414 c -2.394681,-1.52533 -4.282366,-4.78565 -5.165297,-8.92167 l -1.090954,-5.10931 c -0.0411,-0.19206 -0.146935,-0.31967 -0.265593,-0.31967 -0.118587,0 -0.224654,0.12733 -0.265569,0.31967 l -1.090978,5.109 c -0.883073,4.13633 -2.770782,7.39665 -5.165273,8.92198 l -2.958017,1.88414 c -0.111264,0.0711 -0.184968,0.254 -0.184968,0.45876 0,0.20481 0.07394,0.38784 0.184968,0.45873 l 2.958182,1.88469 c 2.394492,1.52533 4.282035,4.78568 5.165108,8.9217 l 1.090978,5.10962 c 0.0411,0.19205 0.146935,0.31964 0.265569,0.31964 0.118587,0 0.224654,-0.12733 0.265593,-0.31964 l 1.090954,-5.10962 c 0.883097,-4.13602 2.770616,-7.3966 5.165132,-8.9217 l 2.958159,-1.88469 c 0.111264,-0.0711 0.184967,-0.25401 0.184967,-0.45873 0,-0.20481 -0.07394,-0.38789 -0.185204,-0.45876 z"
     style="fill:#ffff23;fill-opacity:1;stroke-width:0.21910593" /><path
     inkscape:connector-curvature="0"
     id="path4-3-7"
     d="m 119.41972,88.71631 -0.89173,-0.568036 c -0.72196,-0.459862 -1.29106,-1.442793 -1.55725,-2.689734 l -0.32891,-1.54037 c -0.0124,-0.0579 -0.0444,-0.09637 -0.0801,-0.09637 -0.0358,0 -0.0677,0.03839 -0.0801,0.09637 l -0.32891,1.540278 c -0.26623,1.247033 -0.83534,2.229964 -1.55725,2.689826 l -0.89179,0.568036 c -0.0335,0.02144 -0.0558,0.07658 -0.0558,0.138308 0,0.06175 0.0223,0.116928 0.0558,0.138301 l 0.89184,0.5682 c 0.7219,0.459862 1.29097,1.4428 1.5572,2.689741 l 0.32891,1.540463 c 0.0124,0.0579 0.0443,0.09637 0.0801,0.09637 0.0358,0 0.0677,-0.03839 0.0801,-0.09637 l 0.32891,-1.540463 c 0.26624,-1.246941 0.83529,-2.22995 1.5572,-2.689741 l 0.89183,-0.5682 c 0.0336,-0.02144 0.0558,-0.07658 0.0558,-0.138301 0,-0.06175 -0.0223,-0.116942 -0.0558,-0.138308 z"
     style="fill:#ffff00;stroke-width:0.06605672" /><path
     inkscape:connector-curvature="0"
     id="path4-3-5"
     d="m 160.2163,294.85647 -1.2521,-0.79759 c -1.01371,-0.6457 -1.81281,-2.02585 -2.18656,-3.7767 l -0.46183,-2.16286 c -0.0174,-0.0813 -0.0623,-0.13532 -0.11242,-0.13532 -0.0502,0 -0.0951,0.0539 -0.11242,0.13532 l -0.46183,2.16273 c -0.37383,1.75098 -1.17292,3.13113 -2.18656,3.77683 l -1.25217,0.79759 c -0.0471,0.0301 -0.0783,0.10752 -0.0783,0.1942 0,0.0867 0.0313,0.16418 0.0783,0.19419 l 1.25224,0.79782 c 1.01364,0.6457 1.81266,2.02586 2.18649,3.77671 l 0.46183,2.16299 c 0.0174,0.0813 0.0622,0.13531 0.11242,0.13531 0.0502,0 0.0951,-0.0539 0.11242,-0.13531 l 0.46183,-2.16299 c 0.37382,-1.75085 1.17285,-3.13111 2.18648,-3.77671 l 1.25225,-0.79782 c 0.0471,-0.0301 0.0783,-0.10753 0.0783,-0.19419 0,-0.0867 -0.0313,-0.1642 -0.0784,-0.1942 z"
     style="fill:#ffff00;stroke-width:0.09275135" /><path
     inkscape:connector-curvature="0"
     id="path4-3-3"
     d="m 236.39108,39.463578 -1.70856,-1.088357 c -1.38326,-0.881095 -2.47368,-2.764389 -2.98369,-5.153525 l -0.63019,-2.951346 c -0.0237,-0.110939 -0.085,-0.184652 -0.1534,-0.184652 -0.0685,0 -0.12977,0.07355 -0.15341,0.184652 l -0.63019,2.951169 c -0.51011,2.389313 -1.60052,4.272607 -2.98369,5.153702 l -1.70866,1.088357 c -0.0643,0.04107 -0.10684,0.146717 -0.10684,0.264997 0,0.118307 0.0427,0.224033 0.10684,0.264983 l 1.70876,1.088672 c 1.38317,0.881094 2.47348,2.764402 2.98359,5.153538 l 0.63019,2.951524 c 0.0238,0.110938 0.0849,0.184638 0.15341,0.184638 0.0685,0 0.12977,-0.07355 0.1534,-0.184638 l 0.63019,-2.951524 c 0.5101,-2.389136 1.60043,-4.27258 2.9836,-5.153538 l 1.70875,-1.088672 c 0.0643,-0.04107 0.10684,-0.14673 0.10684,-0.264983 0,-0.118307 -0.0427,-0.22406 -0.10698,-0.264997 z"
     style="fill:#ffff00;stroke-width:0.12656455" /><path
     inkscape:connector-curvature="0"
     id="path4-3-56"
     d="m 143.12883,197.27903 -0.37181,-0.23684 c -0.30102,-0.19174 -0.53832,-0.60158 -0.6493,-1.1215 l -0.13714,-0.64227 c -0.005,-0.0241 -0.0185,-0.0402 -0.0334,-0.0402 -0.0149,0 -0.0282,0.016 -0.0334,0.0402 l -0.13714,0.64223 c -0.11101,0.51996 -0.3483,0.9298 -0.6493,1.12154 l -0.37184,0.23684 c -0.014,0.009 -0.0232,0.0319 -0.0232,0.0577 0,0.0257 0.009,0.0487 0.0232,0.0577 l 0.37186,0.23691 c 0.301,0.19174 0.53827,0.60158 0.64928,1.1215 l 0.13714,0.64231 c 0.005,0.0241 0.0185,0.0402 0.0334,0.0402 0.0149,0 0.0282,-0.016 0.0334,-0.0402 l 0.13714,-0.64231 c 0.111,-0.51992 0.34828,-0.92979 0.64928,-1.1215 l 0.37186,-0.23691 c 0.014,-0.009 0.0232,-0.0319 0.0232,-0.0577 0,-0.0257 -0.009,-0.0488 -0.0233,-0.0577 z"
     style="fill:#ffff00;stroke-width:0.02754269" /><path
     inkscape:connector-curvature="0"
     id="path4-3-2"
     d="m 359.83549,300.17202 -0.83713,-0.53326 c -0.67775,-0.4317 -1.212,-1.35444 -1.46189,-2.52502 l -0.30877,-1.44605 c -0.0116,-0.0543 -0.0417,-0.0905 -0.0752,-0.0905 -0.0336,0 -0.0636,0.036 -0.0752,0.0905 l -0.30877,1.44596 c -0.24993,1.17067 -0.7842,2.09341 -1.46189,2.52511 l -0.83718,0.53326 c -0.0315,0.0201 -0.0523,0.0719 -0.0523,0.12983 0,0.058 0.0209,0.10977 0.0523,0.12984 l 0.83722,0.5334 c 0.6777,0.4317 1.21192,1.35445 1.46185,2.52503 l 0.30877,1.44614 c 0.0116,0.0543 0.0416,0.0905 0.0752,0.0905 0.0336,0 0.0636,-0.036 0.0752,-0.0905 l 0.30877,-1.44614 c 0.24994,-1.17058 0.78414,-2.09339 1.46184,-2.52503 l 0.83723,-0.5334 c 0.0315,-0.0201 0.0524,-0.0719 0.0524,-0.12984 0,-0.058 -0.0209,-0.10978 -0.0524,-0.12983 z"
     style="fill:#ffff00;stroke-width:0.06201169" /><path
     inkscape:connector-curvature="0"
     id="path4-3-9"
     d="m 369.02986,58.924264 -1.2521,-0.79759 c -1.01371,-0.6457 -1.8128,-2.02585 -2.18656,-3.7767 l -0.46182,-2.16286 c -0.0174,-0.0813 -0.0623,-0.13532 -0.11243,-0.13532 -0.0502,0 -0.0951,0.0539 -0.11242,0.13532 l -0.46183,2.16273 c -0.37382,1.75098 -1.17292,3.13113 -2.18655,3.77683 l -1.25218,0.79759 c -0.0471,0.0301 -0.0783,0.10752 -0.0783,0.1942 0,0.0867 0.0313,0.16418 0.0783,0.19419 l 1.25225,0.79782 c 1.01363,0.6457 1.81266,2.02586 2.18648,3.77671 l 0.46183,2.16299 c 0.0174,0.0813 0.0622,0.13531 0.11242,0.13531 0.0502,0 0.0951,-0.0539 0.11243,-0.13531 l 0.46182,-2.16299 c 0.37383,-1.75085 1.17285,-3.13111 2.18649,-3.77671 l 1.25224,-0.79782 c 0.0471,-0.0301 0.0783,-0.10753 0.0783,-0.19419 0,-0.0867 -0.0313,-0.1642 -0.0784,-0.1942 z"
     style="fill:#ffff00;stroke-width:0.09275135" /><path
     inkscape:connector-curvature="0"
     id="path4-3-1"
     d="m 329.46261,79.229082 -0.83713,-0.533253 c -0.67774,-0.431702 -1.212,-1.354444 -1.46189,-2.525028 l -0.30876,-1.446045 c -0.0116,-0.05436 -0.0417,-0.09047 -0.0752,-0.09047 -0.0336,0 -0.0636,0.03604 -0.0752,0.09047 l -0.30877,1.445959 c -0.24993,1.17067 -0.78419,2.093412 -1.46189,2.525114 l -0.83718,0.533253 c -0.0315,0.02012 -0.0523,0.07189 -0.0523,0.129838 0,0.05797 0.0209,0.109768 0.0523,0.129832 l 0.83723,0.533407 c 0.67769,0.431702 1.21191,1.35445 1.46184,2.525034 l 0.30877,1.446132 c 0.0116,0.05436 0.0416,0.09047 0.0752,0.09047 0.0336,0 0.0636,-0.03604 0.0752,-0.09047 l 0.30876,-1.446132 c 0.24994,-1.170584 0.78415,-2.093399 1.46185,-2.525034 l 0.83723,-0.533407 c 0.0315,-0.02012 0.0523,-0.07189 0.0523,-0.129832 0,-0.05797 -0.0209,-0.109781 -0.0524,-0.129838 z"
     style="fill:#ffff00;stroke-width:0.06201173" /><path
     inkscape:connector-curvature="0"
     id="path4-3-27"
     d="m 476.92747,190.77069 -1.80465,-1.14957 c -1.46107,-0.93066 -2.61282,-2.91988 -3.15151,-5.44339 l -0.66564,-3.11734 c -0.0251,-0.11718 -0.0898,-0.19504 -0.16203,-0.19504 -0.0724,0 -0.13707,0.0777 -0.16203,0.19504 l -0.66564,3.11716 c -0.5388,2.52369 -1.69054,4.51291 -3.1515,5.44357 l -1.80476,1.14957 c -0.0679,0.0434 -0.11286,0.15497 -0.11286,0.2799 0,0.12496 0.0451,0.23663 0.11286,0.27989 l 1.80486,1.1499 c 1.46097,0.93065 2.6126,2.91988 3.1514,5.4434 l 0.66564,3.11753 c 0.0251,0.11718 0.0897,0.19502 0.16203,0.19502 0.0724,0 0.13707,-0.0777 0.16203,-0.19502 l 0.66564,-3.11753 c 0.53879,-2.52352 1.69044,-4.51289 3.1514,-5.4434 l 1.80487,-1.1499 c 0.0679,-0.0434 0.11285,-0.15499 0.11285,-0.27989 0,-0.12496 -0.0451,-0.23666 -0.113,-0.2799 z"
     style="fill:#ffff00;stroke-width:0.13368312" /><path
     inkscape:connector-curvature="0"
     id="path4-3-0"
     d="m 432.79244,128.09888 -0.71264,-0.45395 c -0.57695,-0.3675 -1.03176,-1.15302 -1.24449,-2.14952 l -0.26285,-1.231 c -0.01,-0.0463 -0.0354,-0.077 -0.064,-0.077 -0.0286,0 -0.0541,0.0307 -0.064,0.077 l -0.26285,1.23092 c -0.21277,0.99658 -0.66757,1.7821 -1.24449,2.1496 l -0.71268,0.45395 c -0.0268,0.0171 -0.0446,0.0612 -0.0446,0.11053 0,0.0494 0.0178,0.0935 0.0446,0.11053 l 0.71272,0.45408 c 0.57692,0.3675 1.03168,1.15303 1.24445,2.14953 l 0.26285,1.23107 c 0.01,0.0463 0.0354,0.077 0.064,0.077 0.0286,0 0.0541,-0.0307 0.064,-0.077 l 0.26285,-1.23107 c 0.21277,-0.9965 0.66754,-1.78208 1.24445,-2.14953 l 0.71272,-0.45408 c 0.0268,-0.0171 0.0446,-0.0612 0.0446,-0.11053 0,-0.0493 -0.0178,-0.0934 -0.0446,-0.11053 z"
     style="fill:#ffff00;stroke-width:0.0527898" /><path
     inkscape:connector-curvature="0"
     id="path4-3-93"
     d="m 422.48735,83.624309 -0.71264,-0.453951 c -0.57695,-0.367503 -1.03176,-1.153021 -1.24449,-2.149524 l -0.26285,-1.231 c -0.01,-0.04627 -0.0354,-0.07702 -0.064,-0.07702 -0.0286,0 -0.0541,0.03068 -0.064,0.07702 l -0.26285,1.230926 c -0.21277,0.996577 -0.66757,1.782095 -1.24449,2.149598 l -0.71268,0.453951 c -0.0268,0.01713 -0.0446,0.0612 -0.0446,0.11053 0,0.04935 0.0178,0.09344 0.0446,0.110524 l 0.71272,0.454082 c 0.57692,0.367503 1.03168,1.153027 1.24445,2.14953 l 0.26285,1.231074 c 0.01,0.04627 0.0354,0.07701 0.064,0.07701 0.0286,0 0.0541,-0.03068 0.064,-0.07701 l 0.26285,-1.231074 c 0.21277,-0.996503 0.66754,-1.782084 1.24445,-2.14953 l 0.71272,-0.454082 c 0.0268,-0.01713 0.0446,-0.0612 0.0446,-0.110524 0,-0.04935 -0.0178,-0.09345 -0.0446,-0.11053 z"
     style="fill:#ffff00;stroke-width:0.0527898" /><path
     inkscape:connector-curvature="0"
     id="path4-3-60"
     d="m 36.01291,301.90732 -1.2521,-0.79759 c -1.01371,-0.6457 -1.81281,-2.02585 -2.18656,-3.7767 l -0.46183,-2.16286 c -0.0174,-0.0813 -0.0623,-0.13532 -0.11242,-0.13532 -0.0502,0 -0.0951,0.0539 -0.11242,0.13532 l -0.46183,2.16273 c -0.37382,1.75098 -1.17292,3.13113 -2.18656,3.77683 l -1.25217,0.79759 c -0.0471,0.0301 -0.0783,0.10752 -0.0783,0.1942 0,0.0867 0.0313,0.16418 0.0783,0.19419 l 1.25224,0.79782 c 1.01364,0.6457 1.81267,2.02586 2.18649,3.77671 l 0.46183,2.16299 c 0.0174,0.0813 0.0622,0.13531 0.11242,0.13531 0.0502,0 0.0951,-0.0539 0.11242,-0.13531 l 0.46183,-2.16299 c 0.37383,-1.75085 1.17285,-3.13111 2.18649,-3.77671 l 1.25224,-0.79782 c 0.0471,-0.0301 0.0783,-0.10753 0.0783,-0.19419 0,-0.0867 -0.0313,-0.1642 -0.0784,-0.1942 z"
     style="fill:#ffff00;stroke-width:0.09275135" /><path
     inkscape:connector-curvature="0"
     id="path4-3-62"
     d="m 89.532287,198.75538 -1.72776,-1.10059 c -1.398804,-0.89099 -2.501466,-2.79544 -3.017205,-5.21142 l -0.63727,-2.9845 c -0.02395,-0.11219 -0.0859,-0.18673 -0.155131,-0.18673 -0.06923,0 -0.131172,0.0744 -0.155129,0.18673 l -0.637273,2.98432 c -0.515835,2.41616 -1.618498,4.32061 -3.017203,5.2116 l -1.727859,1.10059 c -0.06495,0.0415 -0.1081,0.14836 -0.1081,0.26797 0,0.11964 0.04314,0.22655 0.1081,0.26796 l 1.727957,1.1009 c 1.398705,0.891 2.50127,2.79546 3.017105,5.21144 l 0.637273,2.98468 c 0.02395,0.11219 0.08588,0.18672 0.155129,0.18672 0.06923,0 0.131172,-0.0744 0.155131,-0.18672 l 0.63727,-2.98468 c 0.515836,-2.41598 1.618401,-4.32058 3.017107,-5.21144 l 1.727956,-1.1009 c 0.06495,-0.0415 0.108101,-0.14838 0.108101,-0.26796 0,-0.11963 -0.04325,-0.22658 -0.108197,-0.26797 z"
     style="fill:#ffff00;stroke-width:0.12798646" /><path
     inkscape:connector-curvature="0"
     id="path4-3-61"
     d="m 163.52101,45.984774 -0.67332,-0.428906 c -0.54513,-0.347227 -0.97484,-1.089406 -1.17583,-2.030929 l -0.24835,-1.163083 c -0.009,-0.04372 -0.0335,-0.07277 -0.0605,-0.07277 -0.027,0 -0.0511,0.02898 -0.0604,0.07277 l -0.24835,1.163013 c -0.20102,0.941593 -0.63074,1.683772 -1.17582,2.030999 l -0.67336,0.428906 c -0.0253,0.01619 -0.0421,0.05782 -0.0421,0.104431 0,0.04662 0.0168,0.08829 0.0421,0.104426 l 0.6734,0.42903 c 0.54508,0.347227 0.97476,1.089411 1.17578,2.030934 l 0.24835,1.163154 c 0.009,0.04372 0.0335,0.07276 0.0604,0.07276 0.027,0 0.0512,-0.02899 0.0605,-0.07276 l 0.24835,-1.163154 c 0.20103,-0.941523 0.6307,-1.683761 1.17579,-2.030934 l 0.6734,-0.42903 c 0.0253,-0.01619 0.0421,-0.05782 0.0421,-0.104426 0,-0.04662 -0.0168,-0.0883 -0.0421,-0.104431 z"
     style="fill:#ffff00;stroke-width:0.04987725" /><path
     inkscape:connector-curvature="0"
     id="path4-3-8"
     d="m 34.161897,210.729 -1.636503,-1.04245 c -1.324901,-0.84392 -2.369322,-2.64777 -2.857811,-4.93613 l -0.60361,-2.82685 c -0.02274,-0.10626 -0.08143,-0.17686 -0.146933,-0.17686 -0.06561,0 -0.124295,0.0704 -0.146945,0.17686 l -0.603597,2.82668 c -0.488593,2.28853 -1.533008,4.09238 -2.857827,4.9363 l -1.636585,1.04245 c -0.06152,0.0393 -0.10239,0.14053 -0.10239,0.25382 0,0.11331 0.04086,0.21458 0.10239,0.2538 l 1.636678,1.04275 c 1.324819,0.84393 2.369141,2.64779 2.857734,4.93614 l 0.603597,2.82702 c 0.02274,0.10626 0.08129,0.17685 0.146945,0.17685 0.06561,0 0.124296,-0.0704 0.146933,-0.17685 l 0.60361,-2.82702 c 0.488581,-2.28835 1.53291,-4.09234 2.85772,-4.93614 l 1.636685,-1.04275 c 0.06156,-0.0393 0.102338,-0.14054 0.102338,-0.2538 0,-0.11332 -0.04091,-0.21461 -0.102468,-0.25382 z"
     style="fill:#ffff00;stroke-width:0.12122562" /><path
     inkscape:connector-curvature="0"
     id="path4-3-79"
     d="m 108.18697,159.60852 -0.45984,-0.29292 c -0.3723,-0.23714 -0.66577,-0.74401 -0.80303,-1.38702 l -0.16961,-0.79432 c -0.006,-0.0299 -0.0229,-0.0497 -0.0413,-0.0497 -0.0184,0 -0.0349,0.0198 -0.0413,0.0497 l -0.16961,0.79427 c -0.13729,0.64306 -0.43076,1.14993 -0.80303,1.38707 l -0.45986,0.29292 c -0.0173,0.0111 -0.0288,0.0395 -0.0288,0.0713 0,0.0318 0.0115,0.0603 0.0288,0.0713 l 0.45989,0.293 c 0.37227,0.23714 0.66571,0.74402 0.803,1.38703 l 0.16961,0.79437 c 0.006,0.0299 0.0229,0.0497 0.0413,0.0497 0.0184,0 0.0349,-0.0198 0.0413,-0.0497 l 0.16961,-0.79437 c 0.13729,-0.64301 0.43073,-1.14992 0.803,-1.38703 l 0.45989,-0.293 c 0.0173,-0.0111 0.0288,-0.0395 0.0288,-0.0713 0,-0.0318 -0.0115,-0.0603 -0.0288,-0.0713 z"
     style="fill:#ffff00;stroke-width:0.03406356" /></svg>