<?xml version="1.0" encoding="iso-8859-1"?>
<!-- Generator: Adobe Illustrator 19.0.0, SVG Export Plug-In . SVG Version: 6.00 Build 0)  -->
<svg version="1.1" id="Layer_1" xmlns="http://www.w3.org/2000/svg" xmlns:xlink="http://www.w3.org/1999/xlink" x="0px" y="0px"
	 viewBox="0 0 512 512" style="enable-background:new 0 0 512 512;" xml:space="preserve">
<path style="fill:#995D5C;" d="M452.151,45v452h-90V90H149.849v407h-90V45c0-24.901,20.099-45,45-45H407.15
	C432.051,0,452.151,20.099,452.151,45z"/>
<path style="fill:#E3684F;" d="M392.151,75v422H119.849V75c0-8.401,6.599-15,15-15H377.15C385.551,60,392.151,66.599,392.151,75z"/>
<path style="fill:#994D4D;" d="M452.151,45v452h-90V90h-105V0h150C432.051,0,452.151,20.099,452.151,45z"/>
<path style="fill:#D94E40;" d="M392.151,75v422h-135V60h120C385.551,60,392.151,66.599,392.151,75z"/>
<path style="fill:#D1D7E3;" d="M317.151,300c-6.926,0-12.319-4.863-13.799-9.302c-2.334-4.631-1.441-11.95,3.296-16.201
	c4.204-4.204,10.796-5.698,16.201-3.296c4.439,1.479,9.302,6.872,9.302,13.799C332.151,293.741,324.971,300,317.151,300z"/>
<rect x="194.85" y="135" style="fill:#BAC2CF;" width="122.3" height="60"/>
<path style="fill:#495A79;" d="M497.151,512H14.849c-19.799,0-19.799-30,0-30H497.15C516.95,482,516.95,512,497.151,512z"/>
<path style="fill:#42516D;" d="M497.151,512h-240v-30h240C516.95,482,516.95,512,497.151,512z"/>
<rect x="257.15" y="135" style="fill:#ADB5C5;" width="60" height="60"/>
<path style="fill:#E0E4EC;" d="M317.151,120H194.849c-8.401,0-15,6.599-15,15v60c0,8.399,6.599,15,15,15H317.15
	c8.401,0,15-6.601,15-15v-60C332.151,126.599,325.551,120,317.151,120z M302.151,180H209.85v-30h92.301V180z"/>
<path style="fill:#D1D7E3;" d="M332.151,135v60c0,8.399-6.599,15-15,15h-60v-30h45v-30h-45v-30h60
	C325.551,120,332.151,126.599,332.151,135z"/>
<g>
</g>
<g>
</g>
<g>
</g>
<g>
</g>
<g>
</g>
<g>
</g>
<g>
</g>
<g>
</g>
<g>
</g>
<g>
</g>
<g>
</g>
<g>
</g>
<g>
</g>
<g>
</g>
<g>
</g>
</svg>
