<?xml version="1.0" encoding="UTF-8" standalone="no"?>
<!-- Generator: Adobe Illustrator 16.0.0, SVG Export Plug-In . SVG Version: 6.00 Build 0)  -->

<svg
   xmlns:dc="http://purl.org/dc/elements/1.1/"
   xmlns:cc="http://creativecommons.org/ns#"
   xmlns:rdf="http://www.w3.org/1999/02/22-rdf-syntax-ns#"
   xmlns:svg="http://www.w3.org/2000/svg"
   xmlns="http://www.w3.org/2000/svg"
   xmlns:sodipodi="http://sodipodi.sourceforge.net/DTD/sodipodi-0.dtd"
   xmlns:inkscape="http://www.inkscape.org/namespaces/inkscape"
   version="1.1"
   id="Capa_1"
   x="0px"
   y="0px"
   width="300"
   height="150"
   viewBox="0 0 300 150"
   xml:space="preserve"
   sodipodi:docname="olympic-icon.svg"
   inkscape:version="0.92.1 r15371"><metadata
     id="metadata43"><rdf:RDF><cc:Work
         rdf:about=""><dc:format>image/svg+xml</dc:format><dc:type
           rdf:resource="http://purl.org/dc/dcmitype/StillImage" /><dc:title></dc:title></cc:Work></rdf:RDF></metadata><defs
     id="defs41" /><sodipodi:namedview
     pagecolor="#ffffff"
     bordercolor="#666666"
     borderopacity="1"
     objecttolerance="10"
     gridtolerance="10"
     guidetolerance="10"
     inkscape:pageopacity="0"
     inkscape:pageshadow="2"
     inkscape:window-width="1920"
     inkscape:window-height="1016"
     id="namedview39"
     showgrid="false"
     inkscape:zoom="2.2550973"
     inkscape:cx="52.732734"
     inkscape:cy="117.44055"
     inkscape:window-x="0"
     inkscape:window-y="27"
     inkscape:window-maximized="1"
     inkscape:current-layer="Capa_1" /><g
     id="g6"
     style="fill:#623ed7;fill-opacity:1"
     transform="matrix(4.0171887,0,0,4.0171887,1.7737594,-73.195956)"><g
       id="g4"
       style="fill:#623ed7;fill-opacity:1"><path
         d="m 62.125,19.688 c -6.221,0 -11.327,4.809 -11.825,10.902 -0.184,-0.008 -0.364,-0.027 -0.55,-0.027 -0.186,0 -0.366,0.019 -0.549,0.027 -0.497,-6.094 -5.605,-10.902 -11.826,-10.902 -6.22,0 -11.328,4.809 -11.826,10.901 -0.183,-0.008 -0.364,-0.027 -0.549,-0.027 -0.439,0 -0.87,0.027 -1.297,0.073 C 23.228,24.52 18.11,19.687 11.875,19.687 5.327,19.688 0,25.016 0,31.563 c 0,6.547 5.327,11.874 11.875,11.874 0.439,0 0.87,-0.025 1.297,-0.072 0.475,6.114 5.593,10.948 11.828,10.948 6.22,0 11.328,-4.81 11.826,-10.901 0.183,0.008 0.363,0.026 0.549,0.026 0.186,0 0.366,-0.021 0.55,-0.026 0.496,6.094 5.604,10.901 11.825,10.901 6.221,0 11.328,-4.81 11.826,-10.901 0.183,0.008 0.363,0.026 0.549,0.026 C 68.673,43.438 74,38.109 74,31.563 74,25.017 68.673,19.688 62.125,19.688 Z M 2,31.563 c 0,-5.445 4.43,-9.875 9.875,-9.875 5.266,0 9.57,4.146 9.848,9.345 -4.618,1.329 -8.089,5.384 -8.543,10.308 -0.428,0.06 -0.862,0.099 -1.306,0.099 C 6.429,41.438 2,37.007 2,31.563 Z m 19.606,1.614 c -0.585,3.538 -3.051,6.438 -6.338,7.647 0.586,-3.537 3.051,-6.439 6.338,-7.647 z M 25,52.313 c -5.266,0 -9.57,-4.146 -9.848,-9.345 4.618,-1.329 8.089,-5.385 8.543,-10.308 0.428,-0.059 0.862,-0.099 1.306,-0.099 0.186,0 0.368,0.019 0.552,0.025 0.45,5.218 4.28,9.476 9.286,10.568 -0.371,5.114 -4.637,9.159 -9.839,9.159 z m 2.605,-19.391 c 3.757,1.031 6.62,4.225 7.165,8.156 -3.757,-1.032 -6.62,-4.224 -7.165,-8.156 z m 9.218,8.488 c -0.45,-5.216 -4.28,-9.474 -9.286,-10.569 0.372,-5.108 4.636,-9.153 9.839,-9.153 5.203,0 9.467,4.046 9.84,9.153 -5.006,1.096 -8.836,5.354 -9.286,10.569 -0.185,0.01 -0.365,0.027 -0.552,0.027 -0.187,0.001 -0.371,-0.018 -0.555,-0.027 z m 10.323,-8.488 c -0.545,3.934 -3.408,7.125 -7.166,8.156 0.545,-3.932 3.409,-7.125 7.166,-8.156 z m 2.604,19.391 c -5.202,0 -9.467,-4.045 -9.839,-9.153 5.006,-1.095 8.836,-5.353 9.286,-10.568 0.185,-0.01 0.365,-0.025 0.552,-0.025 0.187,0 0.368,0.019 0.553,0.025 0.449,5.218 4.279,9.476 9.285,10.568 -0.369,5.108 -4.635,9.153 -9.837,9.153 z m 2.605,-19.391 c 3.756,1.031 6.619,4.225 7.164,8.156 -3.755,-1.032 -6.619,-4.224 -7.164,-8.156 z m 9.77,8.516 c -0.186,0 -0.368,-0.019 -0.552,-0.026 -0.45,-5.216 -4.279,-9.474 -9.286,-10.569 0.372,-5.108 4.636,-9.153 9.839,-9.153 5.444,0 9.875,4.43 9.875,9.875 0,5.442 -4.431,9.873 -9.876,9.873 z"
         id="path2"
         style="fill:#623ed7;fill-opacity:1"
         inkscape:connector-curvature="0" /></g></g><g
     id="g8"
     transform="translate(0,76)" /><g
     id="g10"
     transform="translate(0,76)" /><g
     id="g12"
     transform="translate(0,76)" /><g
     id="g14"
     transform="translate(0,76)" /><g
     id="g16"
     transform="translate(0,76)" /><g
     id="g18"
     transform="translate(0,76)" /><g
     id="g20"
     transform="translate(0,76)" /><g
     id="g22"
     transform="translate(0,76)" /><g
     id="g24"
     transform="translate(0,76)" /><g
     id="g26"
     transform="translate(0,76)" /><g
     id="g28"
     transform="translate(0,76)" /><g
     id="g30"
     transform="translate(0,76)" /><g
     id="g32"
     transform="translate(0,76)" /><g
     id="g34"
     transform="translate(0,76)" /><g
     id="g36"
     transform="translate(0,76)" /></svg>